
<svg width="1400" height="760" viewBox="0 0 1400 760" fill="none" xmlns="http://www.w3.org/2000/svg">
  <rect width="1400" height="760" rx="28" fill="#070b18"/>
  <rect x="44" y="44" width="1312" height="672" rx="22" fill="#0b1220" stroke="#26344f" stroke-width="2"/>
  <rect x="44" y="44" width="1312" height="80" rx="22" fill="#111827"/>
  <rect x="44" y="96" width="1312" height="28" fill="#111827"/>
  <g font-family="Inter, Segoe UI, Arial, sans-serif" font-weight="900" font-size="22" fill="#f8fafc">
    <text x="92" y="91">GRIDNEXA DARK GRID</text>
  </g>
  <rect x="72" y="150" width="240" height="44" rx="10" fill="#0f172a" stroke="#334155"/>
  <text x="92" y="179" fill="#94a3b8" font-family="Inter, Segoe UI, Arial, sans-serif" font-size="18">Quick filter</text>
  <rect x="326" y="150" width="220" height="44" rx="10" fill="#0f172a" stroke="#334155"/>
  <text x="346" y="179" fill="#94a3b8" font-family="Inter, Segoe UI, Arial, sans-serif" font-size="18">Find cell</text>
  <g font-family="Inter, Segoe UI, Arial, sans-serif" font-size="18" font-weight="900">
    <rect x="970" y="150" width="96" height="44" rx="10" fill="#2563eb"/><text x="996" y="179" fill="#fff">Save</text>
    <rect x="1080" y="150" width="116" height="44" rx="10" fill="#111827" stroke="#3b82f6"/><text x="1104" y="179" fill="#93c5fd">Export</text>
    <rect x="1210" y="150" width="118" height="44" rx="10" fill="#111827" stroke="#3b82f6"/><text x="1232" y="179" fill="#93c5fd">Review</text>
  </g>
  <rect x="72" y="232" width="1256" height="404" rx="18" fill="#050a16" stroke="#334155" stroke-width="2"/>
  <rect x="72" y="232" width="1256" height="62" rx="18" fill="#0b1220"/>
  <rect x="72" y="270" width="1256" height="24" fill="#0b1220"/>
  <line x1="72" y1="294" x2="1328" y2="294" stroke="#334155" stroke-width="2"/>
  <g stroke="#26344f" stroke-width="2">
    <line x1="134" y1="232" x2="134" y2="636"/>
    <line x1="226" y1="232" x2="226" y2="636"/>
    <line x1="520" y1="232" x2="520" y2="636"/>
    <line x1="792" y1="232" x2="792" y2="636"/>
    <line x1="1006" y1="232" x2="1006" y2="636"/>
    <line x1="72" y1="380" x2="1328" y2="380"/>
    <line x1="72" y1="466" x2="1328" y2="466"/>
    <line x1="72" y1="552" x2="1328" y2="552"/>
  </g>
  <g font-family="Inter, Segoe UI, Arial, sans-serif" font-size="20" font-weight="900" fill="#f8fafc">
    <text x="160" y="272">#</text><text x="252" y="272">NAME</text><text x="546" y="272">DEPARTMENT</text><text x="818" y="272">CITY</text><text x="1032" y="272">SCORE</text>
  </g>
  <g font-family="Inter, Segoe UI, Arial, sans-serif" font-size="21" fill="#e5edf7">
    <text x="160" y="346">1</text><text x="252" y="346">John Carter</text><text x="546" y="346">Operations</text><text x="818" y="346">London</text><text x="1032" y="346">92</text>
    <text x="160" y="432">2</text><text x="252" y="432">Jane Smith</text><text x="546" y="432">Marketing</text><text x="818" y="432">Paris</text><text x="1032" y="432">85</text>
    <text x="160" y="518">3</text><text x="252" y="518">Ava Patel</text><text x="546" y="518">Analytics</text><text x="818" y="518">Berlin</text><text x="1032" y="518">96</text>
    <text x="160" y="604">4</text><text x="252" y="604">Michael Lee</text><text x="546" y="604">Finance</text><text x="818" y="604">New York</text><text x="1032" y="604">74</text>
  </g>
  <rect x="92" y="326" width="20" height="20" rx="4" fill="#f8fafc"/>
  <rect x="92" y="412" width="20" height="20" rx="4" fill="#f8fafc"/>
  <rect x="92" y="498" width="20" height="20" rx="4" fill="#f8fafc"/>
  <rect x="92" y="584" width="20" height="20" rx="4" fill="#f8fafc"/>
</svg>
