
<svg width="1600" height="840" viewBox="0 0 1600 840" fill="none" xmlns="http://www.w3.org/2000/svg">
  <rect width="1600" height="840" rx="36" fill="#07101f"/>
  <rect x="48" y="48" width="1504" height="744" rx="28" fill="#0f172a" stroke="#26344f" stroke-width="2"/>
  <text x="96" y="136" fill="#f8fafc" font-family="Inter, Segoe UI, Arial, sans-serif" font-size="64" font-weight="900">GridNexa</text>
  <text x="98" y="188" fill="#93c5fd" font-family="Inter, Segoe UI, Arial, sans-serif" font-size="30" font-weight="700">Developer-first Excel-like data grid</text>
  <text x="98" y="236" fill="#cbd5e1" font-family="Inter, Segoe UI, Arial, sans-serif" font-size="24">React, Vue, Angular, and JavaScript packages with editing, filters, undo/redo, export, diagnostics, and repro recording.</text>
  <rect x="96" y="294" width="1408" height="394" rx="22" fill="#050a16" stroke="#334155" stroke-width="2"/>
  <rect x="96" y="294" width="1408" height="64" rx="22" fill="#111827"/>
  <rect x="96" y="336" width="1408" height="22" fill="#111827"/>
  <line x1="96" y1="358" x2="1504" y2="358" stroke="#334155" stroke-width="2"/>
  <g font-family="Inter, Segoe UI, Arial, sans-serif" font-weight="900" font-size="22" fill="#f8fafc">
    <text x="140" y="334">#</text>
    <text x="238" y="334">NAME</text>
    <text x="520" y="334">DEPARTMENT</text>
    <text x="824" y="334">STATUS</text>
    <text x="1082" y="334">SCORE</text>
    <text x="1278" y="334">DIAGNOSTICS</text>
  </g>
  <g stroke="#24344f" stroke-width="2">
    <line x1="194" y1="294" x2="194" y2="688"/>
    <line x1="480" y1="294" x2="480" y2="688"/>
    <line x1="780" y1="294" x2="780" y2="688"/>
    <line x1="1040" y1="294" x2="1040" y2="688"/>
    <line x1="1240" y1="294" x2="1240" y2="688"/>
    <line x1="96" y1="444" x2="1504" y2="444"/>
    <line x1="96" y1="530" x2="1504" y2="530"/>
    <line x1="96" y1="616" x2="1504" y2="616"/>
  </g>
  <g font-family="Inter, Segoe UI, Arial, sans-serif" font-size="24" fill="#e5edf7">
    <text x="142" y="410">1</text><text x="238" y="410">John Carter</text><text x="520" y="410">Operations</text><text x="824" y="410">Ready</text><text x="1082" y="410">92</text>
    <text x="142" y="496">2</text><text x="238" y="496">Jane Smith</text><text x="520" y="496">Marketing</text><text x="824" y="496">Review</text><text x="1082" y="496">85</text>
    <text x="142" y="582">3</text><text x="238" y="582">Michael Lee</text><text x="520" y="582">Finance</text><text x="824" y="582">Blocked</text><text x="1082" y="582">74</text>
    <text x="142" y="668">4</text><text x="238" y="668">Ava Patel</text><text x="520" y="668">Analytics</text><text x="824" y="668">Ready</text><text x="1082" y="668">96</text>
  </g>
  <rect x="1278" y="382" width="178" height="44" rx="12" fill="#1d4ed8"/>
  <text x="1302" y="412" fill="#ffffff" font-family="Inter, Segoe UI, Arial, sans-serif" font-size="19" font-weight="800">Export repro</text>
  <rect x="1278" y="468" width="162" height="44" rx="12" fill="#0f172a" stroke="#60a5fa"/>
  <text x="1302" y="498" fill="#93c5fd" font-family="Inter, Segoe UI, Arial, sans-serif" font-size="19" font-weight="800">Diagnostics</text>
  <rect x="1278" y="554" width="146" height="44" rx="12" fill="#0f172a" stroke="#475569"/>
  <text x="1302" y="584" fill="#cbd5e1" font-family="Inter, Segoe UI, Arial, sans-serif" font-size="19" font-weight="800">Undo/Redo</text>
  <g>
    <rect x="96" y="720" width="190" height="48" rx="14" fill="#2563eb"/>
    <text x="125" y="752" fill="#fff" font-family="Inter, Segoe UI, Arial, sans-serif" font-size="20" font-weight="900">Install from npm</text>
    <rect x="306" y="720" width="210" height="48" rx="14" fill="#111827" stroke="#334155"/>
    <text x="335" y="752" fill="#e5edf7" font-family="Inter, Segoe UI, Arial, sans-serif" font-size="20" font-weight="900">View live demo</text>
  </g>
</svg>
